<?xml version="1.0" standalone="no"?>
<!DOCTYPE svg PUBLIC "-//W3C//DTD SVG 20010904//EN"
 "http://www.w3.org/TR/2001/REC-SVG-20010904/DTD/svg10.dtd">
<svg version="1.0" xmlns="http://www.w3.org/2000/svg"
 width="553.000000pt" height="562.000000pt" viewBox="0 0 553.000000 562.000000"
 preserveAspectRatio="xMidYMid meet">

<g transform="translate(0.000000,562.000000) scale(0.100000,-0.100000)"
fill="#000000" stroke="none">
<path d="M2642 5282 c-298 -8 -540 -17 -537 -20 7 -7 1019 18 1120 28 73 7 75
7 20 7 -33 0 -304 -7 -603 -15z"/>
<path d="M3338 5283 c18 -2 45 -2 60 0 15 2 0 4 -33 4 -33 0 -45 -2 -27 -4z"/>
<path d="M3443 5273 c9 -2 25 -2 35 0 9 3 1 5 -18 5 -19 0 -27 -2 -17 -5z"/>
<path d="M3528 5263 c12 -2 30 -2 40 0 9 3 -1 5 -23 4 -22 0 -30 -2 -17 -4z"/>
<path d="M2033 5253 c9 -2 25 -2 35 0 9 3 1 5 -18 5 -19 0 -27 -2 -17 -5z"/>
<path d="M3598 5253 c6 -2 18 -2 25 0 6 3 1 5 -13 5 -14 0 -19 -2 -12 -5z"/>
<path d="M1880 5239 c-23 -5 -10 -5 35 -2 39 3 72 7 74 9 7 7 -72 2 -109 -7z"/>
<path d="M3755 5214 c158 -48 185 -52 56 -9 -56 19 -119 37 -140 40 -20 3 18
-11 84 -31z"/>
<path d="M1808 5223 c6 -2 18 -2 25 0 6 3 1 5 -13 5 -14 0 -19 -2 -12 -5z"/>
<path d="M1758 5213 c6 -2 18 -2 25 0 6 3 1 5 -13 5 -14 0 -19 -2 -12 -5z"/>
<path d="M1555 5156 c-110 -37 -195 -72 -195 -80 0 -3 21 4 48 15 26 12 99 38
162 60 63 21 108 38 100 38 -8 1 -60 -15 -115 -33z"/>
<path d="M3930 5162 c8 -5 26 -13 40 -16 17 -5 20 -4 10 2 -8 5 -26 13 -40 16
-17 5 -20 4 -10 -2z"/>
<path d="M4001 5136 c10 -9 209 -106 209 -101 0 5 -196 105 -206 105 -4 0 -5
-2 -3 -4z"/>
<path d="M1222 5005 c-235 -126 -509 -372 -652 -585 -35 -52 -12 -27 78 85
148 186 357 366 547 474 101 57 122 70 115 70 -3 0 -42 -19 -88 -44z"/>
<path d="M4220 5027 c0 -3 30 -23 68 -45 304 -181 591 -503 751 -844 36 -76
67 -136 69 -134 7 8 -126 274 -173 347 -136 211 -342 431 -524 560 -92 64
-191 125 -191 116z"/>
<path d="M2635 4581 c-52 -9 -125 -49 -208 -115 -37 -30 -91 -69 -119 -88
l-53 -33 -120 4 c-253 8 -287 7 -335 -15 -88 -41 -137 -105 -201 -264 -67
-167 -97 -204 -199 -249 -140 -61 -200 -94 -237 -129 -80 -78 -107 -189 -83
-344 8 -45 14 -119 14 -163 1 -93 -6 -109 -97 -230 -157 -209 -151 -322 31
-558 88 -113 96 -131 96 -221 0 -45 -3 -128 -8 -186 -8 -96 -6 -110 14 -164
42 -110 97 -152 335 -253 112 -47 152 -87 195 -191 56 -136 73 -166 125 -218
89 -89 181 -110 355 -79 109 19 201 19 247 0 20 -8 75 -44 122 -79 151 -112
226 -139 324 -116 64 16 117 45 232 132 140 106 156 112 278 103 190 -14 267
-11 319 13 96 43 154 115 209 259 71 183 107 224 242 274 235 87 318 217 282
443 -9 52 -16 131 -17 174 -1 91 7 110 95 227 76 102 110 174 115 248 6 84
-23 152 -122 283 -46 60 -90 123 -98 139 -26 50 -29 115 -13 237 20 155 6 225
-62 315 -36 47 -99 85 -221 134 -184 73 -213 101 -276 262 -62 158 -136 233
-255 258 -57 12 -107 10 -293 -12 -132 -15 -159 -7 -285 88 -132 100 -224 132
-328 114z m206 -91 c29 -18 78 -53 109 -78 30 -25 79 -56 108 -70 47 -21 63
-23 140 -19 48 2 133 10 189 17 93 12 108 12 158 -4 90 -28 143 -86 199 -216
48 -113 54 -124 85 -167 23 -32 50 -51 118 -83 48 -23 97 -45 108 -49 150 -60
214 -115 241 -208 15 -50 15 -71 5 -163 -15 -141 -14 -214 4 -257 16 -38 88
-143 140 -205 17 -21 44 -61 60 -90 24 -43 28 -63 28 -124 0 -63 -4 -80 -32
-129 -18 -31 -51 -80 -74 -108 -107 -132 -119 -181 -92 -388 10 -77 14 -155
10 -183 -14 -108 -77 -176 -215 -234 -166 -69 -215 -108 -261 -209 -16 -35
-29 -66 -29 -68 0 -3 -10 -27 -21 -53 -12 -26 -28 -62 -36 -81 -20 -46 -79
-109 -122 -131 -53 -26 -127 -33 -221 -20 -46 6 -114 11 -152 11 -83 0 -142
-28 -263 -126 -110 -89 -172 -119 -249 -119 -74 0 -129 25 -236 109 -140 108
-187 118 -394 90 -77 -10 -147 -14 -174 -10 -103 15 -174 73 -222 180 -77 171
-101 215 -135 242 -31 26 -109 64 -264 129 -150 63 -217 194 -181 352 6 24 11
83 12 132 1 99 -15 141 -93 242 -134 174 -141 188 -147 275 -4 64 -1 78 26
135 16 35 51 88 76 118 25 30 60 81 77 114 32 59 32 59 26 173 -4 62 -12 140
-19 173 -22 109 16 224 96 285 19 14 85 48 147 76 177 77 189 91 280 306 57
136 95 187 163 223 52 26 101 29 311 15 107 -6 125 -5 165 13 38 16 173 110
190 132 11 14 97 68 125 78 17 7 64 10 106 9 66 -3 84 -8 130 -37z"/>
<path d="M2645 4481 c-44 -11 -73 -28 -145 -86 -169 -134 -233 -162 -359 -151
-230 19 -256 19 -292 1 -19 -9 -49 -31 -67 -49 -34 -32 -42 -47 -107 -201 -74
-176 -116 -218 -295 -291 -123 -50 -194 -115 -205 -188 -7 -47 -7 -63 15 -259
18 -165 3 -209 -125 -377 -64 -84 -77 -116 -77 -185 -1 -75 9 -93 114 -232
127 -169 138 -206 117 -416 -10 -110 -10 -142 1 -181 18 -66 85 -124 192 -165
227 -88 287 -142 357 -325 75 -194 152 -231 396 -191 141 23 185 20 268 -19
40 -18 101 -57 136 -85 75 -62 125 -88 180 -97 68 -11 119 11 246 106 172 129
187 135 309 134 56 -1 138 -5 184 -9 159 -14 223 36 296 227 32 86 69 159 101
196 37 45 120 95 207 128 189 70 235 154 200 369 -6 39 -11 109 -12 157 0 109
16 147 112 275 77 103 97 146 97 208 0 63 -19 102 -109 220 -133 176 -151 232
-129 395 25 179 6 261 -72 319 -22 16 -94 51 -160 78 -185 74 -245 131 -306
288 -43 109 -71 153 -121 187 -60 41 -106 45 -293 23 -129 -16 -158 -17 -202
-5 -55 14 -125 54 -210 121 -91 72 -170 98 -242 80z m327 -297 c330 -57 598
-200 833 -445 128 -134 217 -274 308 -486 30 -69 64 -221 83 -363 15 -118 15
-151 5 -265 -16 -162 -31 -234 -76 -366 -74 -217 -175 -381 -343 -553 -198
-204 -484 -358 -757 -411 -174 -33 -283 -36 -485 -14 -303 34 -604 183 -836
414 -243 242 -376 509 -425 854 -18 128 -6 379 24 511 25 107 90 283 131 355
12 22 33 58 45 80 62 109 215 285 335 384 55 45 225 151 298 185 126 59 306
111 443 129 85 11 332 6 417 -9z"/>
<path d="M2595 4130 c-71 -6 -130 -18 -255 -48 -78 -20 -249 -97 -341 -154
-142 -89 -316 -247 -383 -349 -17 -24 -38 -53 -48 -65 -35 -40 -137 -255 -167
-351 -50 -164 -65 -261 -65 -438 0 -162 14 -256 61 -410 46 -151 146 -339 242
-455 167 -202 342 -330 591 -433 202 -83 459 -114 680 -83 188 27 281 54 450
134 185 87 411 283 529 457 71 104 153 271 181 365 12 41 26 86 30 100 5 14
16 72 26 130 18 111 15 366 -4 440 -5 19 -15 60 -22 90 -59 261 -203 509 -407
699 -298 279 -679 408 -1098 371z m286 -49 c139 -15 349 -74 436 -122 122 -67
152 -85 193 -113 73 -51 91 -67 190 -166 218 -217 346 -484 381 -795 48 -419
-104 -836 -408 -1126 -360 -342 -853 -460 -1328 -319 -92 27 -329 136 -358
164 -6 6 -28 23 -47 36 -163 114 -323 305 -415 495 -82 169 -114 281 -135 470
-19 169 4 389 57 543 73 215 179 389 328 537 88 88 151 141 216 180 9 6 43 26
75 46 223 135 533 199 815 170z"/>
<path d="M2566 3951 c-18 -7 -18 -8 -3 -14 10 -4 17 -17 17 -31 0 -14 5 -28
10 -31 6 -4 10 8 10 29 0 20 5 36 10 36 6 0 10 5 10 10 0 12 -26 12 -54 1z"/>
<path d="M2640 3920 c0 -46 17 -59 53 -42 21 10 21 11 -5 11 -32 1 -39 21 -8
21 28 0 25 20 -2 21 l-23 0 23 9 c30 13 28 20 -8 20 -28 0 -30 -2 -30 -40z"/>
<path d="M2730 3918 c1 -41 1 -42 14 -20 l13 24 17 -26 c9 -15 21 -24 26 -21
13 8 13 72 0 80 -5 3 -10 -3 -10 -14 0 -27 -12 -27 -28 -1 -20 32 -32 23 -32
-22z"/>
<path d="M2520 3927 c0 -27 0 -27 -25 -11 -14 9 -28 14 -32 11 -9 -10 7 -77
19 -77 6 0 8 9 5 20 -6 24 -3 25 28 4 27 -17 28 -15 25 31 -2 39 -20 58 -20
22z"/>
<path d="M2840 3918 c-26 -42 -25 -46 5 -40 14 2 32 -1 40 -8 12 -10 15 -9 15
8 0 30 -18 72 -30 72 -6 0 -19 -15 -30 -32z"/>
<path d="M2930 3914 c-15 -39 -13 -57 6 -50 10 4 25 -1 37 -11 19 -17 19 -17
13 5 -5 13 -3 22 3 22 19 0 12 39 -8 50 -30 15 -41 12 -51 -16z m48 -12 c2 -7
-3 -12 -12 -12 -9 0 -16 7 -16 16 0 17 22 14 28 -4z"/>
<path d="M2383 3912 c-10 -6 -10 -17 -2 -46 9 -32 14 -37 32 -32 12 3 25 6 30
6 4 0 7 4 7 9 0 5 -9 7 -20 4 -25 -7 -26 5 -2 24 16 13 15 14 -5 10 -27 -6
-30 8 -5 22 16 10 15 10 -3 11 -11 0 -26 -4 -32 -8z"/>
<path d="M3024 3904 c3 -9 6 -29 6 -45 0 -36 9 -36 39 2 25 32 22 51 -4 29
-14 -11 -17 -10 -22 8 -3 12 -10 22 -15 22 -6 0 -7 -7 -4 -16z"/>
<path d="M2294 3865 c-4 -15 -1 -32 7 -41 14 -16 60 -15 66 2 2 7 -8 9 -27 6
-25 -4 -30 -1 -30 17 0 13 9 25 23 31 21 8 21 9 -5 9 -21 1 -29 -5 -34 -24z"/>
<path d="M3210 3829 c0 -11 -5 -29 -10 -39 -6 -11 -6 -21 -1 -24 11 -7 44 61
36 74 -11 17 -25 11 -25 -11z"/>
<path d="M3130 3830 c0 -5 5 -10 11 -10 5 0 7 5 4 10 -3 6 -8 10 -11 10 -2 0
-4 -4 -4 -10z"/>
<path d="M2230 3810 c-13 -8 -12 -10 3 -10 9 0 17 5 17 10 0 12 -1 12 -20 0z"/>
<path d="M3263 3813 c-7 -3 -13 -12 -13 -22 0 -9 6 -23 13 -30 10 -11 7 -12
-13 -6 -22 7 -23 6 -11 -9 27 -32 71 -9 71 38 0 18 -29 35 -47 29z m27 -28 c0
-8 -4 -15 -10 -15 -5 0 -10 7 -10 15 0 8 5 15 10 15 6 0 10 -7 10 -15z"/>
<path d="M2122 3793 c-6 -11 -6 -28 -1 -41 7 -18 15 -23 36 -20 18 2 29 10 31
22 5 24 -17 37 -40 25 -24 -13 -24 6 0 20 16 10 16 10 0 11 -10 0 -21 -8 -26
-17z m48 -33 c0 -5 -4 -10 -10 -10 -5 0 -10 5 -10 10 0 6 5 10 10 10 6 0 10
-4 10 -10z"/>
<path d="M2058 3759 c-10 -5 -18 -15 -18 -21 0 -9 3 -9 12 0 20 20 28 14 28
-23 0 -38 2 -40 31 -25 22 12 26 32 5 24 -10 -4 -16 3 -18 22 -3 31 -15 38
-40 23z"/>
<path d="M3343 3760 c21 -13 14 -30 -13 -30 -28 0 -35 -19 -14 -35 25 -19 40
-19 24 0 -10 12 -8 16 15 25 33 13 30 44 -5 48 -22 2 -23 1 -7 -8z"/>
<path d="M1992 3711 c-8 -5 -12 -17 -10 -27 3 -14 11 -18 32 -17 22 2 26 -1
18 -9 -16 -16 -15 -29 2 -22 23 9 28 35 11 60 -16 25 -31 29 -53 15z m28 -21
c0 -5 -4 -10 -10 -10 -5 0 -10 5 -10 10 0 6 5 10 10 10 6 0 10 -4 10 -10z"/>
<path d="M3381 3706 c-19 -23 -10 -60 17 -64 27 -4 40 22 21 45 -12 15 -11 16
9 11 15 -4 22 -2 19 5 -6 18 -52 20 -66 3z m29 -36 c0 -5 -4 -10 -10 -10 -5 0
-10 5 -10 10 0 6 5 10 10 10 6 0 10 -4 10 -10z"/>
<path d="M2547 3695 c-399 -80 -706 -396 -777 -801 -18 -103 -8 -318 19 -413
80 -275 258 -493 506 -619 214 -108 429 -134 660 -80 285 67 528 258 663 523
65 129 106 333 96 480 -26 381 -255 708 -597 852 -160 67 -399 92 -570 58z
m276 -91 c4 -4 4 -11 0 -17 -3 -5 -7 -26 -8 -46 -3 -35 -2 -36 8 -8 8 20 18
27 39 27 15 0 28 -5 28 -11 0 -6 9 -8 20 -4 12 4 28 1 37 -7 9 -7 21 -13 27
-14 6 0 17 -2 25 -2 9 -2 11 -10 6 -29 -10 -41 -21 -48 -52 -33 -27 13 -35 15
-60 18 -7 1 -13 13 -13 27 0 30 -16 33 -25 6 -5 -15 -14 -19 -40 -18 -19 2
-36 5 -40 8 -10 11 -55 -3 -55 -17 0 -8 -9 -14 -21 -14 -15 0 -19 4 -15 16 6
15 0 16 -51 9 -80 -10 -86 -11 -106 -20 -25 -10 -30 -3 -37 56 -5 39 -3 52 8
56 19 8 32 -14 32 -54 0 -18 5 -33 10 -33 6 0 10 14 10 30 0 28 3 30 35 30 28
0 35 -4 35 -20 0 -11 5 -20 10 -20 6 0 10 11 10 25 0 24 2 25 65 25 55 0 65
-3 66 -17 1 -17 2 -17 6 0 2 9 9 17 14 17 6 0 7 5 4 10 -12 19 12 39 28 24z
m-386 -76 c6 -7 10 -20 10 -28 1 -8 4 -22 7 -31 6 -13 -9 -25 -71 -55 -43 -21
-90 -52 -105 -68 l-27 -30 -26 28 c-32 35 -31 72 3 69 25 -3 26 0 12 27 -14
26 9 39 26 16 7 -11 18 -15 25 -11 7 5 19 -2 29 -15 l18 -24 -5 29 c-9 45 49
77 62 35 4 -11 10 -18 15 -15 5 3 4 16 -2 30 -18 39 5 73 29 43z m657 -24 c8
-3 12 -12 10 -19 -3 -7 -1 -16 5 -20 6 -3 14 1 17 9 3 9 15 16 25 16 21 0 24
-10 10 -25 -14 -15 -2 -65 14 -59 17 7 55 -13 55 -29 0 -7 -11 -20 -24 -29
-23 -17 -25 -16 -67 16 -24 18 -59 39 -76 47 -38 16 -40 23 -13 67 21 35 21
35 44 26z m-344 -133 c0 -38 11 -51 45 -51 27 0 35 5 45 30 14 33 17 34 55 20
23 -9 25 -14 20 -43 -6 -29 -3 -35 21 -46 24 -11 30 -9 53 13 21 20 30 23 46
14 31 -17 35 -29 20 -59 -13 -24 -12 -28 4 -43 22 -20 35 -20 65 -1 21 14 24
13 46 -10 l23 -25 -23 -25 c-21 -23 -22 -27 -10 -51 12 -22 19 -25 48 -19 60
11 85 -37 36 -72 -21 -15 -24 -24 -19 -46 6 -23 12 -27 45 -27 25 0 40 -5 44
-16 12 -31 5 -45 -29 -60 -29 -12 -35 -19 -35 -44 0 -25 5 -31 33 -38 27 -7
32 -13 32 -37 0 -22 -5 -31 -20 -33 -54 -8 -63 -13 -68 -37 -3 -21 1 -29 24
-40 37 -20 41 -29 27 -60 -11 -25 -15 -26 -54 -20 -37 5 -44 3 -54 -15 -10
-18 -8 -26 9 -44 26 -28 27 -48 2 -70 -17 -16 -20 -16 -53 4 l-35 20 -18 -20
c-15 -17 -16 -24 -7 -45 6 -14 18 -25 26 -25 16 0 163 -55 186 -70 13 -8 13
-13 -3 -41 -18 -33 -12 -48 21 -49 27 0 9 -38 -42 -89 l-54 -53 -41 24 c-44
25 -48 41 -10 46 49 7 42 22 -26 52 -126 57 -214 74 -370 74 -163 0 -246 -19
-387 -86 -87 -41 -101 -58 -50 -58 51 0 57 -15 20 -44 -19 -14 -41 -26 -49
-26 -8 0 -39 25 -69 55 l-55 56 25 19 25 19 -25 26 -25 26 25 19 c22 17 69 38
181 83 43 18 55 48 28 73 -19 17 -21 17 -50 0 -56 -33 -96 6 -59 57 20 26 20
30 6 52 -14 21 -20 23 -42 15 -39 -15 -50 -12 -63 17 -13 28 -8 36 37 62 9 5
11 17 7 34 -6 22 -13 26 -48 29 -39 3 -42 5 -45 35 -3 28 1 32 32 43 27 9 36
17 36 35 0 25 -15 41 -45 47 -15 2 -20 11 -20 38 0 33 2 35 37 38 30 3 37 8
43 30 5 20 2 30 -10 37 -46 28 -47 29 -34 59 12 25 17 27 50 22 31 -5 39 -2
52 17 13 21 13 25 -9 50 -23 26 -23 29 -8 52 19 29 27 30 59 9 19 -13 27 -13
44 -2 24 15 27 39 9 68 -11 16 -9 22 7 34 28 22 50 19 67 -6 13 -20 18 -21 42
-10 22 10 26 18 26 52 0 35 3 40 27 46 26 7 29 5 58 -40 14 -21 65 -10 65 14
0 37 12 50 46 50 27 0 34 -4 34 -19z m580 -26 c24 -26 21 -47 -4 -26 -16 14
-32 -2 -20 -21 5 -8 0 -9 -16 -5 -13 3 -29 2 -36 -4 -13 -10 -47 -1 -42 12 3
8 79 67 89 68 3 1 16 -10 29 -24z m-1131 -34 c35 -49 21 -107 -17 -69 -9 9
-13 7 -18 -8 -4 -10 -18 -33 -31 -50 -13 -17 -23 -36 -23 -41 0 -6 -7 -14 -16
-17 -15 -6 -15 -8 1 -25 11 -13 14 -27 10 -40 -7 -23 -20 -27 -30 -11 -12 20
-22 0 -34 -70 -13 -73 -27 -93 -45 -68 -6 8 -28 21 -48 28 -37 14 -48 32 -28
45 5 3 23 -1 39 -10 17 -8 32 -15 36 -15 9 0 5 39 -5 45 -16 10 -12 55 6 62 8
3 13 12 10 20 -8 19 11 53 28 53 9 0 12 8 9 24 -3 16 3 29 21 44 14 11 26 27
26 36 0 9 9 21 20 28 11 7 20 16 20 20 0 10 33 48 42 48 3 0 16 -13 27 -29z
m1149 -60 l21 -29 -22 -16 c-12 -8 -17 -15 -10 -15 6 -1 15 4 18 9 8 14 52 13
61 -1 3 -6 1 -15 -5 -19 -9 -5 -7 -17 9 -45 23 -42 24 -40 -10 -54 -25 -11
-25 -11 4 -8 27 2 31 -2 48 -48 10 -27 16 -56 13 -62 -7 -20 -63 -16 -73 5
-12 21 -5 42 14 42 8 0 14 7 14 15 0 11 -7 14 -22 10 -20 -5 -27 3 -57 67 -19
40 -45 87 -58 104 -29 38 -29 48 0 62 31 15 31 15 55 -17z"/>
<path d="M2685 3550 c-3 -5 -1 -10 4 -10 6 0 11 5 11 10 0 6 -2 10 -4 10 -3 0
-8 -4 -11 -10z"/>
<path d="M2945 3500 c-3 -5 -1 -10 4 -10 6 0 11 5 11 10 0 6 -2 10 -4 10 -3 0
-8 -4 -11 -10z"/>
<path d="M2246 3392 c-3 -5 1 -15 9 -22 16 -14 20 -3 6 19 -5 8 -11 9 -15 3z"/>
<path d="M3075 3449 c-11 -17 1 -21 15 -4 8 9 8 15 2 15 -6 0 -14 -5 -17 -11z"/>
<path d="M2708 3011 l4 -69 -33 -17 c-62 -33 -92 -91 -78 -153 4 -17 3 -34 -1
-37 -5 -3 -26 -27 -48 -53 -29 -34 -38 -52 -32 -62 7 -12 20 -3 57 38 l48 53
40 -20 c50 -26 80 -26 130 0 l39 21 48 -50 c39 -41 49 -47 59 -36 9 12 2 24
-38 62 -49 47 -50 49 -46 98 6 60 -23 109 -80 137 l-37 19 0 69 c0 60 -2 69
-18 69 -16 0 -17 -8 -14 -69z m57 -125 c36 -16 46 -40 20 -50 -13 -5 -13 -9
-3 -25 15 -25 4 -38 -18 -21 -13 12 -17 11 -24 0 -11 -17 -4 -30 16 -30 9 0
14 -10 14 -29 0 -22 -5 -30 -23 -33 -13 -3 -34 -1 -45 3 -28 11 -29 49 -2 56
21 6 27 28 11 38 -5 3 -12 1 -16 -5 -9 -15 -35 -12 -35 5 0 7 8 19 18 24 16
10 16 10 0 11 -39 0 -31 43 10 59 37 13 38 13 77 -3z"/>
<path d="M2390 2950 c0 -5 5 -10 10 -10 6 0 10 5 10 10 0 6 -4 10 -10 10 -5 0
-10 -4 -10 -10z"/>
<path d="M2355 2750 c3 -5 8 -10 11 -10 2 0 4 5 4 10 0 6 -5 10 -11 10 -5 0
-7 -4 -4 -10z"/>
<path d="M3056 2653 c-6 -14 -5 -15 5 -6 7 7 10 15 7 18 -3 3 -9 -2 -12 -12z"/>
<path d="M2985 2580 c3 -5 8 -10 11 -10 2 0 4 5 4 10 0 6 -5 10 -11 10 -5 0
-7 -4 -4 -10z"/>
<path d="M2876 2493 c-11 -11 -6 -23 9 -23 8 0 15 4 15 9 0 13 -16 22 -24 14z"/>
<path d="M2590 2475 c0 -8 5 -15 10 -15 6 0 10 7 10 15 0 8 -4 15 -10 15 -5 0
-10 -7 -10 -15z"/>
<path d="M2125 3249 c-4 -6 -5 -13 -2 -16 7 -7 27 6 27 18 0 12 -17 12 -25 -2z"/>
<path d="M3360 3160 c-12 -8 -10 -10 8 -10 13 0 20 4 17 10 -7 12 -6 12 -25 0z"/>
<path d="M1937 3664 c-3 -4 7 -20 24 -36 37 -37 49 -30 19 11 -21 31 -31 36
-43 25z"/>
<path d="M3534 1933 c-5 -19 -2 -30 12 -40 27 -20 58 -12 62 15 4 27 -22 40
-45 21 -14 -12 -15 -11 -9 9 5 13 3 22 -3 22 -6 0 -14 -12 -17 -27z m56 -23
c0 -5 -4 -10 -10 -10 -5 0 -10 5 -10 10 0 6 5 10 10 10 6 0 10 -4 10 -10z"/>
<path d="M1970 1910 c0 -5 5 -10 10 -10 6 0 10 -4 10 -10 0 -5 -16 -10 -35
-10 -39 0 -44 -9 -17 -33 23 -21 33 -22 26 -2 -5 11 1 15 20 15 28 0 36 26 14
48 -15 15 -28 16 -28 2z"/>
<path d="M3486 1885 c-22 -22 -20 -26 9 -19 23 6 25 3 25 -25 0 -36 10 -39 36
-10 19 21 19 22 -3 15 -19 -6 -23 -3 -23 12 0 31 -25 46 -44 27z"/>
<path d="M2001 1836 c-16 -19 -11 -46 11 -60 22 -13 60 19 56 48 -4 26 -49 34
-67 12z m52 -2 c11 -12 -13 -44 -33 -44 -24 0 -26 13 -4 34 17 17 27 20 37 10z"/>
<path d="M3432 1828 c-18 -18 -15 -43 9 -64 15 -14 24 -16 37 -8 26 17 26 50
0 68 -27 19 -31 19 -46 4z m48 -28 c9 -16 8 -22 -5 -26 -18 -7 -45 12 -45 32
0 21 38 17 50 -6z"/>
<path d="M2098 1788 c19 -19 15 -26 -18 -33 -35 -8 -38 -20 -8 -36 18 -10 20
-9 15 5 -4 11 1 18 18 22 28 7 34 38 9 48 -24 9 -29 7 -16 -6z"/>
<path d="M3360 1765 c-11 -13 -9 -15 11 -13 21 3 23 -1 21 -29 -4 -38 7 -42
33 -13 16 18 16 20 2 20 -11 0 -17 8 -17 25 0 29 -29 35 -50 10z"/>
<path d="M2137 1732 c-21 -23 -22 -46 -1 -62 12 -11 18 -10 32 4 14 14 15 20
4 37 -12 19 -12 20 10 13 20 -6 21 -5 9 10 -18 21 -34 20 -54 -2z m23 -37 c0
-8 -4 -15 -9 -15 -13 0 -22 16 -14 24 11 11 23 6 23 -9z"/>
<path d="M3213 1673 c-7 -2 -13 -13 -13 -24 0 -14 7 -19 25 -19 29 0 33 -15 8
-29 -16 -9 -16 -10 -1 -11 21 0 50 28 45 44 -2 6 -16 10 -31 9 -30 -2 -33 5
-8 23 13 11 14 13 2 13 -8 0 -21 -3 -27 -6z"/>
<path d="M2303 1638 c-22 -29 -23 -38 -3 -58 21 -21 40 -26 40 -10 0 6 -6 10
-14 10 -16 0 -29 27 -20 42 4 5 20 7 36 4 26 -5 29 -4 18 9 -15 18 -44 20 -57
3z"/>
<path d="M3164 1624 c6 -23 4 -25 -11 -19 -54 22 -56 21 -38 -21 20 -48 29
-57 23 -21 -6 30 2 33 32 15 28 -18 33 -5 16 36 -17 42 -31 48 -22 10z"/>
<path d="M2376 1588 c-12 -29 -12 -35 2 -45 9 -7 23 -13 31 -13 13 1 13 2 -1
11 -26 14 -22 32 5 26 20 -5 20 -5 5 7 -26 19 -22 29 7 22 14 -4 25 -2 25 3 0
8 -32 20 -52 21 -5 0 -14 -15 -22 -32z"/>
<path d="M3032 1594 c-38 -26 -22 -74 24 -74 45 0 58 50 19 76 -18 12 -24 11
-43 -2z m43 -34 c0 -16 -6 -26 -18 -28 -19 -4 -32 20 -23 44 9 25 41 13 41
-16z"/>
<path d="M2461 1568 c-16 -45 -14 -55 14 -60 29 -6 32 0 9 16 -12 9 -13 17 -5
38 6 15 6 30 2 33 -5 3 -14 -9 -20 -27z"/>
<path d="M2536 1568 c-20 -65 -14 -79 37 -77 l22 0 -22 11 c-28 14 -30 32 -3
23 11 -4 20 -2 20 4 0 6 -9 11 -20 11 -31 0 -24 20 8 21 24 0 25 1 7 9 -29 13
-45 12 -49 -2z"/>
<path d="M2913 1573 c-26 -5 -30 -18 -8 -27 8 -3 15 -17 15 -31 0 -14 5 -25
10 -25 7 0 8 13 4 35 -4 23 -2 35 5 35 6 0 11 5 11 10 0 6 -3 9 -7 9 -5 -1
-18 -4 -30 -6z"/>
<path d="M2975 1548 c4 -18 12 -37 17 -43 7 -7 9 -2 4 15 -3 14 -6 33 -6 43 0
9 -5 17 -11 17 -7 0 -8 -12 -4 -32z"/>
<path d="M2616 1554 c-3 -9 -6 -29 -6 -45 0 -29 2 -30 36 -27 34 3 37 6 39 36
2 27 -2 35 -22 43 -33 12 -40 12 -47 -7z m44 -14 c0 -5 -4 -10 -10 -10 -5 0
-10 5 -10 10 0 6 5 10 10 10 6 0 10 -4 10 -10z m0 -40 c0 -5 -4 -10 -9 -10 -6
0 -13 5 -16 10 -3 6 1 10 9 10 9 0 16 -4 16 -10z"/>
<path d="M2709 1550 c-1 -5 -1 -21 -1 -35 0 -46 1 -48 17 -35 11 9 18 10 29 1
11 -9 15 -5 19 21 2 18 0 39 -5 46 -12 14 -58 16 -59 2z m51 -26 c0 -9 -7 -14
-17 -12 -25 5 -28 28 -4 28 12 0 21 -6 21 -16z"/>
<path d="M2811 1523 c-14 -51 -14 -58 4 -43 8 7 25 10 40 6 30 -8 30 -7 8 39
-22 45 -39 44 -52 -2z m34 -3 c3 -5 1 -10 -4 -10 -6 0 -11 5 -11 10 0 6 2 10
4 10 3 0 8 -4 11 -10z"/>
<path d="M512 4333 c-65 -104 -163 -291 -162 -312 0 -3 31 53 68 124 37 72 79
148 93 170 37 58 41 65 36 65 -3 0 -18 -21 -35 -47z"/>
<path d="M297 3873 c-25 -76 -48 -156 -52 -178 -3 -22 10 12 29 75 19 63 44
142 55 174 12 33 19 61 17 63 -2 3 -25 -58 -49 -134z"/>
<path d="M5126 3940 c4 -14 20 -70 35 -125 15 -55 28 -93 28 -85 1 21 -49 201
-60 220 -7 11 -8 8 -3 -10z"/>
<path d="M5191 3694 c0 -11 3 -14 6 -6 3 7 2 16 -1 19 -3 4 -6 -2 -5 -13z"/>
<path d="M5201 3654 c0 -11 3 -14 6 -6 3 7 2 16 -1 19 -3 4 -6 -2 -5 -13z"/>
<path d="M232 3625 c0 -16 2 -22 5 -12 2 9 2 23 0 30 -3 6 -5 -1 -5 -18z"/>
<path d="M5212 3605 c0 -16 2 -22 5 -12 2 9 2 23 0 30 -3 6 -5 -1 -5 -18z"/>
<path d="M222 3545 c0 -16 2 -22 5 -12 2 9 2 23 0 30 -3 6 -5 -1 -5 -18z"/>
<path d="M5223 3525 c0 -27 2 -38 4 -22 2 15 2 37 0 50 -2 12 -4 0 -4 -28z"/>
<path d="M205 3437 c-4 -42 -5 -81 -3 -89 3 -7 8 25 12 71 4 46 5 86 2 88 -2
2 -7 -29 -11 -70z"/>
<path d="M5236 3265 c3 -116 12 -403 19 -640 7 -236 13 -378 14 -315 1 158
-28 1152 -35 1159 -3 3 -2 -89 2 -204z"/>
<path d="M192 3270 c0 -14 2 -19 5 -12 2 6 2 18 0 25 -3 6 -5 1 -5 -13z"/>
<path d="M202 3110 c-2 -184 25 -1060 32 -1067 3 -3 3 68 0 158 -4 90 -12 362
-19 604 -7 242 -13 379 -13 305z"/>
<path d="M5263 2130 c0 -30 2 -43 4 -27 2 15 2 39 0 55 -2 15 -4 2 -4 -28z"/>
<path d="M5242 1984 c-7 -48 -11 -88 -9 -91 3 -2 10 34 18 82 7 47 10 87 8 90
-3 2 -11 -34 -17 -81z"/>
<path d="M241 1998 c-1 -34 21 -186 26 -173 1 6 -3 53 -11 105 -8 52 -14 83
-15 68z"/>
<path d="M5222 1855 c0 -16 2 -22 5 -12 2 9 2 23 0 30 -3 6 -5 -1 -5 -18z"/>
<path d="M271 1800 c0 -8 4 -24 9 -35 5 -13 9 -14 9 -5 0 8 -4 24 -9 35 -5 13
-9 14 -9 5z"/>
<path d="M5211 1794 c0 -11 3 -14 6 -6 3 7 2 16 -1 19 -3 4 -6 -2 -5 -13z"/>
<path d="M5171 1668 c-45 -139 -45 -137 -33 -118 14 22 73 201 70 212 -2 5
-19 -37 -37 -94z"/>
<path d="M291 1735 c-2 -19 48 -181 69 -226 11 -24 18 -35 14 -24 -12 41 -66
211 -74 235 -5 14 -9 20 -9 15z"/>
<path d="M5116 1515 c-9 -26 -7 -32 5 -12 6 10 9 21 6 23 -2 3 -7 -2 -11 -11z"/>
<path d="M5096 1465 c-9 -26 -7 -32 5 -12 6 10 9 21 6 23 -2 3 -7 -2 -11 -11z"/>
<path d="M380 1457 c0 -17 116 -238 168 -317 105 -163 325 -406 434 -480 43
-30 22 -9 -86 86 -96 83 -248 258 -324 373 -31 46 -86 143 -124 215 -37 72
-68 128 -68 123z"/>
<path d="M5076 1412 c-4 -10 -39 -75 -79 -144 -207 -354 -487 -620 -837 -795
-69 -35 -121 -63 -116 -63 19 0 216 102 291 150 315 207 530 441 710 773 26
49 45 90 42 93 -3 3 -8 -3 -11 -14z"/>
<path d="M1024 631 c19 -30 352 -231 382 -231 5 0 -34 23 -86 51 -52 27 -141
81 -198 119 -57 38 -100 66 -98 61z"/>
<path d="M3990 395 c-14 -8 -20 -14 -15 -14 6 0 21 6 35 14 14 8 21 14 15 14
-5 0 -21 -6 -35 -14z"/>
<path d="M1430 390 c8 -5 20 -10 25 -10 6 0 3 5 -5 10 -8 5 -19 10 -25 10 -5
0 -3 -5 5 -10z"/>
<path d="M1480 370 c8 -5 20 -10 25 -10 6 0 3 5 -5 10 -8 5 -19 10 -25 10 -5
0 -3 -5 5 -10z"/>
<path d="M3930 370 c-8 -5 -10 -10 -5 -10 6 0 17 5 25 10 8 5 11 10 5 10 -5 0
-17 -5 -25 -10z"/>
<path d="M1521 357 c8 -9 137 -57 152 -57 6 1 -15 11 -48 24 -75 29 -112 40
-104 33z"/>
<path d="M3810 335 c-41 -13 -68 -24 -60 -24 8 -1 49 10 90 23 41 13 68 24 60
24 -8 0 -49 -11 -90 -23z"/>
<path d="M3698 303 c6 -2 18 -2 25 0 6 3 1 5 -13 5 -14 0 -19 -2 -12 -5z"/>
<path d="M1705 290 c11 -5 27 -9 35 -9 9 0 8 4 -5 9 -11 5 -27 9 -35 9 -9 0
-8 -4 5 -9z"/>
<path d="M3658 293 c7 -3 16 -2 19 1 4 3 -2 6 -13 5 -11 0 -14 -3 -6 -6z"/>
<path d="M1778 273 c6 -2 18 -2 25 0 6 3 1 5 -13 5 -14 0 -19 -2 -12 -5z"/>
<path d="M3563 273 c9 -2 23 -2 30 0 6 3 -1 5 -18 5 -16 0 -22 -2 -12 -5z"/>
<path d="M1828 263 c6 -2 18 -2 25 0 6 3 1 5 -13 5 -14 0 -19 -2 -12 -5z"/>
<path d="M3449 266 c-4 -4 -839 -30 -1264 -39 -117 -3 -116 -3 30 -5 196 -3
1181 26 1265 37 60 8 62 9 19 10 -25 0 -48 -1 -50 -3z"/>
<path d="M1930 244 c36 -7 79 -13 95 -12 17 0 -4 6 -45 13 -97 17 -134 17 -50
-1z"/>
</g>
</svg>
